<svg width="28" height="26" viewBox="0 0 28 26" fill="none" xmlns="http://www.w3.org/2000/svg">
<path id="Star 3" d="M12.601 1.8345C13.1732 0.675032 14.8266 0.675035 15.3988 1.8345L18.2217 7.55422C18.4489 8.01464 18.8881 8.33377 19.3962 8.4076L25.7083 9.3248C26.9879 9.51073 27.4988 11.0832 26.5729 11.9857L22.0054 16.4379C21.6378 16.7963 21.47 17.3126 21.5568 17.8187L22.635 24.1052C22.8536 25.3796 21.516 26.3514 20.3715 25.7498L14.7258 22.7816C14.2714 22.5427 13.7284 22.5427 13.274 22.7816L7.62827 25.7498C6.48381 26.3514 5.14622 25.3796 5.36479 24.1053L6.44302 17.8187C6.52982 17.3126 6.36204 16.7963 5.99437 16.4379L1.4269 11.9857C0.501013 11.0832 1.01193 9.51073 2.29147 9.3248L8.60356 8.4076C9.11167 8.33377 9.55091 8.01464 9.77814 7.55422L12.601 1.8345Z" fill="#F2C94C"/>
</svg>
